<?xml version="1.0" encoding="UTF-8" standalone="no"?>
<!DOCTYPE svg PUBLIC "-//W3C//DTD SVG 1.1//EN" "http://www.w3.org/Graphics/SVG/1.1/DTD/svg11.dtd">
<svg width="100%" height="100%" viewBox="0 0 1080 1080" version="1.1" xmlns="http://www.w3.org/2000/svg" xmlns:xlink="http://www.w3.org/1999/xlink" xml:space="preserve" xmlns:serif="http://www.serif.com/" style="fill-rule:evenodd;clip-rule:evenodd;stroke-linecap:round;stroke-linejoin:round;stroke-miterlimit:1.5;">
    <g>
        <g transform="matrix(1.47945,0,0,1.47945,-147.945,-118.356)">
            <circle cx="465" cy="445" r="365" style="fill:rgb(79,70,229);"/>
        </g>
        <g transform="matrix(1.17081,0,0,1.17081,-106.007,-111.806)">
            <g transform="matrix(0.86288,0,0,0.860004,160.471,211.557)">
                <path d="M749.527,455.455C725.717,500.083 472.948,412.549 580.486,528.893C612.945,564.01 741.028,728.027 725.726,733.225C710.424,738.424 434.777,714.508 301.921,581.73C212.454,492.316 188.679,413.332 151.037,309.891C138.362,275.061 18.113,231.552 23.038,220.387C28.346,208.355 103.114,227.661 116.36,220.387C127.873,214.065 177.551,190.731 220.843,236.665C280.661,300.136 230.658,365.382 332.097,387.472C434.161,409.699 427.562,306.632 437.4,294.184C447.239,281.736 849.657,168.127 849.657,168.127C861.065,223.065 749.527,267.268 749.527,267.268L878.999,256.257C883.621,310.611 725.726,323.921 725.726,323.921L849.657,337.358C843.876,383.798 709.296,374.89 709.296,374.89L813.938,406.711C798.999,433.179 688.893,423.106 688.893,423.106L749.527,455.455Z"/>
            </g>
            <g transform="matrix(1.30304,0,0,1.2987,108.872,121.875)">
                <path d="M152.923,220.387C157.578,220.387 161.358,224.167 161.358,228.822C161.358,233.477 157.578,237.257 152.923,237.257C148.268,237.257 144.489,233.477 144.489,228.822C144.489,224.167 148.268,220.387 152.923,220.387Z" style="fill:rgb(255,76,76);"/>
            </g>
            <g transform="matrix(0.86288,0,0,0.860004,160.471,211.557)">
                <path d="M209.064,423.868C303.102,606.99 451.9,689.062 708.923,722.83C723.166,724.701 203.763,413.545 209.064,423.868Z" style="fill:white;"/>
            </g>
            <g transform="matrix(0.86288,0,0,0.860004,160.471,211.557)">
                <path d="M249.458,322.695L257.545,348.54L182.585,364.683L178.603,351.96L249.458,322.695Z" style="fill:white;"/>
            </g>
            <path d="M450,570L500,580L550,560L600,480L650,547.803L700,460L750,487.803L800,410" style="fill:none;stroke:white;stroke-width:3.42px;"/>
            <g transform="matrix(1.30304,0,0,1.2987,250.734,272.829)">
                <path d="M152.923,220.387C157.578,220.387 161.358,224.167 161.358,228.822C161.358,233.477 157.578,237.257 152.923,237.257C148.268,237.257 144.489,233.477 144.489,228.822C144.489,224.167 148.268,220.387 152.923,220.387Z" style="fill:white;stroke:white;stroke-width:2.63px;stroke-linecap:butt;stroke-miterlimit:1.41421;"/>
            </g>
            <g transform="matrix(1.30304,0,0,1.2987,300.734,281.875)">
                <path d="M152.923,220.387C157.578,220.387 161.358,224.167 161.358,228.822C161.358,233.477 157.578,237.257 152.923,237.257C148.268,237.257 144.489,233.477 144.489,228.822C144.489,224.167 148.268,220.387 152.923,220.387Z" style="fill:white;stroke:white;stroke-width:2.63px;stroke-linecap:butt;stroke-miterlimit:1.41421;"/>
            </g>
            <g transform="matrix(1.30304,0,0,1.2987,350.734,261.829)">
                <path d="M152.923,220.387C157.578,220.387 161.358,224.167 161.358,228.822C161.358,233.477 157.578,237.257 152.923,237.257C148.268,237.257 144.489,233.477 144.489,228.822C144.489,224.167 148.268,220.387 152.923,220.387Z" style="fill:white;stroke:white;stroke-width:2.63px;stroke-linecap:butt;stroke-miterlimit:1.41421;"/>
            </g>
            <g transform="matrix(1.30304,0,0,1.2987,400.734,185.784)">
                <path d="M152.923,220.387C157.578,220.387 161.358,224.167 161.358,228.822C161.358,233.477 157.578,237.257 152.923,237.257C148.268,237.257 144.489,233.477 144.489,228.822C144.489,224.167 148.268,220.387 152.923,220.387Z" style="fill:white;stroke:white;stroke-width:2.63px;stroke-linecap:butt;stroke-miterlimit:1.41421;"/>
            </g>
            <g transform="matrix(1.30304,0,0,1.2987,450.734,247.784)">
                <path d="M152.923,220.387C157.578,220.387 161.358,224.167 161.358,228.822C161.358,233.477 157.578,237.257 152.923,237.257C148.268,237.257 144.489,233.477 144.489,228.822C144.489,224.167 148.268,220.387 152.923,220.387Z" style="fill:white;stroke:white;stroke-width:2.63px;stroke-linecap:butt;stroke-miterlimit:1.41421;"/>
            </g>
            <g transform="matrix(1.30304,0,0,1.2987,500.734,164.875)">
                <path d="M152.923,220.387C157.578,220.387 161.358,224.167 161.358,228.822C161.358,233.477 157.578,237.257 152.923,237.257C148.268,237.257 144.489,233.477 144.489,228.822C144.489,224.167 148.268,220.387 152.923,220.387Z" style="fill:white;stroke:rgb(255,235,235);stroke-width:2.63px;stroke-linecap:butt;stroke-miterlimit:1.41421;"/>
            </g>
            <g transform="matrix(1.30304,0,0,1.2987,551.725,187.784)">
                <path d="M152.923,220.387C157.578,220.387 161.358,224.167 161.358,228.822C161.358,233.477 157.578,237.257 152.923,237.257C148.268,237.257 144.489,233.477 144.489,228.822C144.489,224.167 148.268,220.387 152.923,220.387Z" style="fill:white;stroke:white;stroke-width:2.63px;stroke-linecap:butt;stroke-miterlimit:1.41421;"/>
            </g>
            <g transform="matrix(1.30304,0,0,1.2987,601.725,110.829)">
                <path d="M152.923,220.387C157.578,220.387 161.358,224.167 161.358,228.822C161.358,233.477 157.578,237.257 152.923,237.257C148.268,237.257 144.489,233.477 144.489,228.822C144.489,224.167 148.268,220.387 152.923,220.387Z" style="fill:white;stroke:white;stroke-width:2.63px;stroke-linecap:butt;stroke-miterlimit:1.41421;"/>
            </g>
        </g>
    </g>
</svg>
